<svg id="visual" viewBox="0 0 1280 768" width="1280" height="768" xmlns="http://www.w3.org/2000/svg" xmlns:xlink="http://www.w3.org/1999/xlink" version="1.1"><rect x="0" y="0" width="1280" height="768" fill="#bebebe"></rect><path d="M0 492L11.2 508.3C22.3 524.7 44.7 557.3 67.2 572.7C89.7 588 112.3 586 134.8 566C157.3 546 179.7 508 202 499.2C224.3 490.3 246.7 510.7 269.2 506.3C291.7 502 314.3 473 336.8 482.8C359.3 492.7 381.7 541.3 404.2 570C426.7 598.7 449.3 607.3 471.8 614.2C494.3 621 516.7 626 539 620.5C561.3 615 583.7 599 606.2 583.3C628.7 567.7 651.3 552.3 673.8 523.7C696.3 495 718.7 453 741 443.3C763.3 433.7 785.7 456.3 808.2 480C830.7 503.7 853.3 528.3 875.8 538.3C898.3 548.3 920.7 543.7 943.2 552.2C965.7 560.7 988.3 582.3 1010.8 596.7C1033.3 611 1055.7 618 1078 591C1100.3 564 1122.7 503 1145.2 502.3C1167.7 501.7 1190.3 561.3 1212.8 560.5C1235.3 559.7 1257.7 498.3 1268.8 467.7L1280 437L1280 769L1268.8 769C1257.7 769 1235.3 769 1212.8 769C1190.3 769 1167.7 769 1145.2 769C1122.7 769 1100.3 769 1078 769C1055.7 769 1033.3 769 1010.8 769C988.3 769 965.7 769 943.2 769C920.7 769 898.3 769 875.8 769C853.3 769 830.7 769 808.2 769C785.7 769 763.3 769 741 769C718.7 769 696.3 769 673.8 769C651.3 769 628.7 769 606.2 769C583.7 769 561.3 769 539 769C516.7 769 494.3 769 471.8 769C449.3 769 426.7 769 404.2 769C381.7 769 359.3 769 336.8 769C314.3 769 291.7 769 269.2 769C246.7 769 224.3 769 202 769C179.7 769 157.3 769 134.8 769C112.3 769 89.7 769 67.2 769C44.7 769 22.3 769 11.2 769L0 769Z" fill="#1c1c1c" stroke-linecap="round" stroke-linejoin="miter"></path></svg>